<?xml version="1.0" encoding="utf-8"?><svg width="auto" height="5370" style="overflow:visible " version="1.1" xmlns="http://www.w3.org/2000/svg"><rect x="20" y="20" width="200" height="40" style="fill:white;stroke:black;stroke-width:1" /><text x="30" y="30" font-size="10" style="fill:blue">recipes</text><rect x="240" y="20" width="200" height="40" style="fill:white;stroke:black;stroke-width:1" /><text x="250" y="30" font-size="10" style="fill:blue">recipe</text><path d="M220 40 C240 40 220 40 240 40" style="fill:transparent;stroke:black" /><text x="250" y="40" font-size="8" style="fill:black">nombre: Fabada Asturiana</text><text x="250" y="50" font-size="8" style="fill:black">tipo: Primer plato</text><text x="250" y="60" font-size="8" style="fill:black">dificultad: fácil</text><text x="250" y="70" font-size="8" style="fill:black">calorias: 1200 aproximadamente</text><text x="250" y="80" font-size="8" style="fill:black">tiempo_de_elaboracion: entre 5 y 8 horas</text><rect x="460" y="20" width="200" height="40" style="fill:white;stroke:black;stroke-width:1" /><text x="470" y="30" font-size="10" style="fill:blue">ingredients</text><path d="M440 40 C460 40 440 40 460 40" style="fill:transparent;stroke:black" /><rect x="680" y="20" width="200" height="40" style="fill:white;stroke:black;stroke-width:1" /><text x="690" y="30" font-size="10" style="fill:blue">ingredient</text><path d="M660 40 C680 40 660 40 680 40" style="fill:transparent;stroke:black" /><text x="690" y="40" font-size="8" style="fill:black">nombre: Fabes de la Granja</text><text x="690" y="50" font-size="8" style="fill:black">cantidad: 500 gramos</text><rect x="680" y="70" width="200" height="40" style="fill:white;stroke:black;stroke-width:1" /><text x="690" y="80" font-size="10" style="fill:blue">ingredient</text><path d="M660 40 C680 40 660 90 680 90" style="fill:transparent;stroke:black" /><text x="690" y="90" font-size="8" style="fill:black">nombre: Chorizo</text><text x="690" y="100" font-size="8" style="fill:black">cantidad: 1 o 2</text><rect x="680" y="120" width="200" height="40" style="fill:white;stroke:black;stroke-width:1" /><text x="690" y="130" font-size="10" style="fill:blue">ingredient</text><path d="M660 40 C680 40 660 140 680 140" style="fill:transparent;stroke:black" /><text x="690" y="140" font-size="8" style="fill:black">nombre: Morcilla</text><text x="690" y="150" font-size="8" style="fill:black">cantidad: 1 o 2</text><rect x="680" y="170" width="200" height="40" style="fill:white;stroke:black;stroke-width:1" /><text x="690" y="180" font-size="10" style="fill:blue">ingredient</text><path d="M660 40 C680 40 660 190 680 190" style="fill:transparent;stroke:black" /><text x="690" y="190" font-size="8" style="fill:black">nombre: Taco de Jamón</text><text x="690" y="200" font-size="8" style="fill:black">cantidad: 1</text><rect x="680" y="220" width="200" height="40" style="fill:white;stroke:black;stroke-width:1" /><text x="690" y="230" font-size="10" style="fill:blue">ingredient</text><path d="M660 40 C680 40 660 240 680 240" style="fill:transparent;stroke:black" /><text x="690" y="240" font-size="8" style="fill:black">nombre: Agua</text><text x="690" y="250" font-size="8" style="fill:black">cantidad: </text><rect x="680" y="270" width="200" height="40" style="fill:white;stroke:black;stroke-width:1" /><text x="690" y="280" font-size="10" style="fill:blue">ingredient</text><path d="M660 40 C680 40 660 290 680 290" style="fill:transparent;stroke:black" /><text x="690" y="290" font-size="8" style="fill:black">nombre: Sal</text><text x="690" y="300" font-size="8" style="fill:black">cantidad: Al gusto</text><rect x="680" y="320" width="200" height="40" style="fill:white;stroke:black;stroke-width:1" /><text x="690" y="330" font-size="10" style="fill:blue">ingredient</text><path d="M660 40 C680 40 660 340 680 340" style="fill:transparent;stroke:black" /><text x="690" y="340" font-size="8" style="fill:black">nombre: Azafrán</text><text x="690" y="350" font-size="8" style="fill:black">cantidad: Unas hebras</text><rect x="460" y="420" width="200" height="40" style="fill:white;stroke:black;stroke-width:1" /><text x="470" y="430" font-size="10" style="fill:blue">cooking_steps</text><path d="M440 40 C460 40 440 440 460 440" style="fill:transparent;stroke:black" /><rect x="680" y="420" width="200" height="40" style="fill:white;stroke:black;stroke-width:1" /><text x="690" y="430" font-size="10" style="fill:blue">step</text><path d="M660 440 C680 440 660 440 680 440" style="fill:transparent;stroke:black" /><text x="690" y="440" font-size="8" style="fill:black">numero: 1</text><rect x="746" y="420" width="137" height="40" style="fill:green;stroke:black;stroke-width:1" /><text x="756" y="430" font-size="8" style="fill:white"> Dejar les fabes en remojo la noche antes de ser cocinadas.</text><rect x="680" y="470" width="200" height="40" style="fill:white;stroke:black;stroke-width:1" /><text x="690" y="480" font-size="10" style="fill:blue">step</text><path d="M660 440 C680 440 660 490 680 490" style="fill:transparent;stroke:black" /><text x="690" y="490" font-size="8" style="fill:black">numero: 2</text><rect x="746" y="470" width="137" height="40" style="fill:green;stroke:black;stroke-width:1" /><text x="756" y="480" font-size="8" style="fill:white"> A la mañana siguiente escurrir y apartar hasta su elaboración.</text><rect x="680" y="520" width="200" height="40" style="fill:white;stroke:black;stroke-width:1" /><text x="690" y="530" font-size="10" style="fill:blue">step</text><path d="M660 440 C680 440 660 540 680 540" style="fill:transparent;stroke:black" /><text x="690" y="540" font-size="8" style="fill:black">numero: 3</text><rect x="746" y="520" width="137" height="40" style="fill:green;stroke:black;stroke-width:1" /><text x="756" y="530" font-size="8" style="fill:white"> Añadimos a una cazuela les fabes y las cubrimos con agua. Tienen que quedar un par de dedos por encima.</text><rect x="680" y="570" width="200" height="40" style="fill:white;stroke:black;stroke-width:1" /><text x="690" y="580" font-size="10" style="fill:blue">step</text><path d="M660 440 C680 440 660 590 680 590" style="fill:transparent;stroke:black" /><text x="690" y="590" font-size="8" style="fill:black">numero: 4</text><rect x="746" y="570" width="137" height="40" style="fill:green;stroke:black;stroke-width:1" /><text x="756" y="580" font-size="8" style="fill:white"> Calentamos a fuego alto hasta que empiece a hervir.</text><rect x="680" y="620" width="200" height="40" style="fill:white;stroke:black;stroke-width:1" /><text x="690" y="630" font-size="10" style="fill:blue">step</text><path d="M660 440 C680 440 660 640 680 640" style="fill:transparent;stroke:black" /><text x="690" y="640" font-size="8" style="fill:black">numero: 5</text><rect x="746" y="620" width="137" height="40" style="fill:green;stroke:black;stroke-width:1" /><text x="756" y="630" font-size="8" style="fill:white"> Una vez alcanzado el punto de ebullicion, introducimos el compango.</text><rect x="680" y="670" width="200" height="40" style="fill:white;stroke:black;stroke-width:1" /><text x="690" y="680" font-size="10" style="fill:blue">step</text><path d="M660 440 C680 440 660 690 680 690" style="fill:transparent;stroke:black" /><text x="690" y="690" font-size="8" style="fill:black">numero: 6</text><rect x="746" y="670" width="137" height="40" style="fill:green;stroke:black;stroke-width:1" /><text x="756" y="680" font-size="8" style="fill:white"> Revisamos cada pocos minutos para retirar la espuma del cocido.</text><rect x="680" y="720" width="200" height="40" style="fill:white;stroke:black;stroke-width:1" /><text x="690" y="730" font-size="10" style="fill:blue">step</text><path d="M660 440 C680 440 660 740 680 740" style="fill:transparent;stroke:black" /><text x="690" y="740" font-size="8" style="fill:black">numero: 7</text><rect x="746" y="720" width="137" height="40" style="fill:green;stroke:black;stroke-width:1" /><text x="756" y="730" font-size="8" style="fill:white"> Tras media hora a fuego alto, lo ponemos a fuego medio, añadimos el azafrán y la sal al gusto.</text><rect x="680" y="770" width="200" height="40" style="fill:white;stroke:black;stroke-width:1" /><text x="690" y="780" font-size="10" style="fill:blue">step</text><path d="M660 440 C680 440 660 790 680 790" style="fill:transparent;stroke:black" /><text x="690" y="790" font-size="8" style="fill:black">numero: 8</text><rect x="746" y="770" width="137" height="40" style="fill:green;stroke:black;stroke-width:1" /><text x="756" y="780" font-size="8" style="fill:white"> Dejamos que se cocinen lentamente a temperatura baja durante 2 horas. Siempre removiendo de vez en cuando con una cuchara de madera sin romperlas. Durante estas dos horas, añadimos agua fría en dos ocasiones para “asustarlas” (rompe el hervor y ayuda a su perfecta cocción). </text><rect x="680" y="820" width="200" height="40" style="fill:white;stroke:black;stroke-width:1" /><text x="690" y="830" font-size="10" style="fill:blue">step</text><path d="M660 440 C680 440 660 840 680 840" style="fill:transparent;stroke:black" /><text x="690" y="840" font-size="8" style="fill:black">numero: 9</text><rect x="746" y="820" width="137" height="40" style="fill:green;stroke:black;stroke-width:1" /><text x="756" y="830" font-size="8" style="fill:white"> Probamos tras esas 2 horas, verificando que estan bien de sal y cocción. </text><rect x="680" y="870" width="200" height="40" style="fill:white;stroke:black;stroke-width:1" /><text x="690" y="880" font-size="10" style="fill:blue">step</text><path d="M660 440 C680 440 660 890 680 890" style="fill:transparent;stroke:black" /><text x="690" y="890" font-size="8" style="fill:black">numero: 10</text><rect x="746" y="870" width="137" height="40" style="fill:green;stroke:black;stroke-width:1" /><text x="756" y="880" font-size="8" style="fill:white"> Apartamos del fuego, dejamos reposar una media hora, y servimos.</text><rect x="460" y="970" width="200" height="40" style="fill:white;stroke:black;stroke-width:1" /><text x="470" y="980" font-size="10" style="fill:blue">tools</text><path d="M440 40 C460 40 440 990 460 990" style="fill:transparent;stroke:black" /><rect x="680" y="970" width="200" height="40" style="fill:white;stroke:black;stroke-width:1" /><text x="690" y="980" font-size="10" style="fill:blue">tool</text><path d="M660 990 C680 990 660 990 680 990" style="fill:transparent;stroke:black" /><text x="690" y="990" font-size="8" style="fill:black">nombre: Pota baja y ancha</text><rect x="680" y="1020" width="200" height="40" style="fill:white;stroke:black;stroke-width:1" /><text x="690" y="1030" font-size="10" style="fill:blue">tool</text><path d="M660 990 C680 990 660 1040 680 1040" style="fill:transparent;stroke:black" /><text x="690" y="1040" font-size="8" style="fill:black">nombre: Cuchara de madera</text><rect x="680" y="1070" width="200" height="40" style="fill:white;stroke:black;stroke-width:1" /><text x="690" y="1080" font-size="10" style="fill:blue">tool</text><path d="M660 990 C680 990 660 1090 680 1090" style="fill:transparent;stroke:black" /><text x="690" y="1090" font-size="8" style="fill:black">nombre: Fuente</text><rect x="680" y="1120" width="200" height="40" style="fill:white;stroke:black;stroke-width:1" /><text x="690" y="1130" font-size="10" style="fill:blue">tool</text><path d="M660 990 C680 990 660 1140 680 1140" style="fill:transparent;stroke:black" /><text x="690" y="1140" font-size="8" style="fill:black">nombre: Espumadera</text><rect x="680" y="1170" width="200" height="40" style="fill:white;stroke:black;stroke-width:1" /><text x="690" y="1180" font-size="10" style="fill:blue">tool</text><path d="M660 990 C680 990 660 1190 680 1190" style="fill:transparent;stroke:black" /><text x="690" y="1190" font-size="8" style="fill:black">nombre: Garfilla</text><rect x="680" y="1220" width="200" height="40" style="fill:white;stroke:black;stroke-width:1" /><text x="690" y="1230" font-size="10" style="fill:blue">tool</text><path d="M660 990 C680 990 660 1240 680 1240" style="fill:transparent;stroke:black" /><text x="690" y="1240" font-size="8" style="fill:black">nombre: Cacillo o cucharón</text><rect x="460" y="1320" width="200" height="40" style="fill:white;stroke:black;stroke-width:1" /><text x="470" y="1330" font-size="10" style="fill:blue">origin</text><path d="M440 40 C460 40 440 1340 460 1340" style="fill:transparent;stroke:black" /><rect x="526" y="1320" width="137" height="40" style="fill:green;stroke:black;stroke-width:1" /><text x="536" y="1330" font-size="8" style="fill:white">
		Receta popular Asturiana.
		</text><rect x="240" y="1420" width="200" height="40" style="fill:white;stroke:black;stroke-width:1" /><text x="250" y="1430" font-size="10" style="fill:blue">recipe</text><path d="M220 40 C240 40 220 1440 240 1440" style="fill:transparent;stroke:black" /><text x="250" y="1440" font-size="8" style="fill:black">nombre: Ensalada de Arroz</text><text x="250" y="1450" font-size="8" style="fill:black">tipo: Entrante</text><text x="250" y="1460" font-size="8" style="fill:black">dificultad: fácil</text><text x="250" y="1470" font-size="8" style="fill:black">calorias: 350</text><text x="250" y="1480" font-size="8" style="fill:black">tiempo_de_elaboracion: Media hora</text><rect x="460" y="1420" width="200" height="40" style="fill:white;stroke:black;stroke-width:1" /><text x="470" y="1430" font-size="10" style="fill:blue">ingredients</text><path d="M440 1440 C460 1440 440 1440 460 1440" style="fill:transparent;stroke:black" /><rect x="680" y="1420" width="200" height="40" style="fill:white;stroke:black;stroke-width:1" /><text x="690" y="1430" font-size="10" style="fill:blue">ingredient</text><path d="M660 1440 C680 1440 660 1440 680 1440" style="fill:transparent;stroke:black" /><text x="690" y="1440" font-size="8" style="fill:black">nombre: Arroz Blanco</text><text x="690" y="1450" font-size="8" style="fill:black">cantidad: 2 tazas</text><rect x="680" y="1470" width="200" height="40" style="fill:white;stroke:black;stroke-width:1" /><text x="690" y="1480" font-size="10" style="fill:blue">ingredient</text><path d="M660 1440 C680 1440 660 1490 680 1490" style="fill:transparent;stroke:black" /><text x="690" y="1490" font-size="8" style="fill:black">nombre: Lechuga</text><text x="690" y="1500" font-size="8" style="fill:black">cantidad: 1</text><rect x="680" y="1520" width="200" height="40" style="fill:white;stroke:black;stroke-width:1" /><text x="690" y="1530" font-size="10" style="fill:blue">ingredient</text><path d="M660 1440 C680 1440 660 1540 680 1540" style="fill:transparent;stroke:black" /><text x="690" y="1540" font-size="8" style="fill:black">nombre: Aceitunas</text><text x="690" y="1550" font-size="8" style="fill:black">cantidad: 1 lata</text><rect x="680" y="1570" width="200" height="40" style="fill:white;stroke:black;stroke-width:1" /><text x="690" y="1580" font-size="10" style="fill:blue">ingredient</text><path d="M660 1440 C680 1440 660 1590 680 1590" style="fill:transparent;stroke:black" /><text x="690" y="1590" font-size="8" style="fill:black">nombre: Mahonesa o salsa césar</text><text x="690" y="1600" font-size="8" style="fill:black">cantidad: Al gusto</text><rect x="680" y="1620" width="200" height="40" style="fill:white;stroke:black;stroke-width:1" /><text x="690" y="1630" font-size="10" style="fill:blue">ingredient</text><path d="M660 1440 C680 1440 660 1640 680 1640" style="fill:transparent;stroke:black" /><text x="690" y="1640" font-size="8" style="fill:black">nombre: Queso en tacos</text><text x="690" y="1650" font-size="8" style="fill:black">cantidad: Al gusto</text><rect x="680" y="1670" width="200" height="40" style="fill:white;stroke:black;stroke-width:1" /><text x="690" y="1680" font-size="10" style="fill:blue">ingredient</text><path d="M660 1440 C680 1440 660 1690 680 1690" style="fill:transparent;stroke:black" /><text x="690" y="1690" font-size="8" style="fill:black">nombre: Zanahoria rallada</text><text x="690" y="1700" font-size="8" style="fill:black">cantidad: Al gusto</text><rect x="460" y="1770" width="200" height="40" style="fill:white;stroke:black;stroke-width:1" /><text x="470" y="1780" font-size="10" style="fill:blue">cooking_steps</text><path d="M440 1440 C460 1440 440 1790 460 1790" style="fill:transparent;stroke:black" /><rect x="680" y="1770" width="200" height="40" style="fill:white;stroke:black;stroke-width:1" /><text x="690" y="1780" font-size="10" style="fill:blue">step</text><path d="M660 1790 C680 1790 660 1790 680 1790" style="fill:transparent;stroke:black" /><text x="690" y="1790" font-size="8" style="fill:black">numero: 1</text><rect x="746" y="1770" width="137" height="40" style="fill:green;stroke:black;stroke-width:1" /><text x="756" y="1780" font-size="8" style="fill:white"> Poner el arroz en un cazo con un chorro de aceite y sofreir.</text><rect x="680" y="1820" width="200" height="40" style="fill:white;stroke:black;stroke-width:1" /><text x="690" y="1830" font-size="10" style="fill:blue">step</text><path d="M660 1790 C680 1790 660 1840 680 1840" style="fill:transparent;stroke:black" /><text x="690" y="1840" font-size="8" style="fill:black">numero: 2</text><rect x="746" y="1820" width="137" height="40" style="fill:green;stroke:black;stroke-width:1" /><text x="756" y="1830" font-size="8" style="fill:white"> Una vez sofrito echar 3 tazas de agua en el cazo y poner a hervir.</text><rect x="680" y="1870" width="200" height="40" style="fill:white;stroke:black;stroke-width:1" /><text x="690" y="1880" font-size="10" style="fill:blue">step</text><path d="M660 1790 C680 1790 660 1890 680 1890" style="fill:transparent;stroke:black" /><text x="690" y="1890" font-size="8" style="fill:black">numero: 3</text><rect x="746" y="1870" width="137" height="40" style="fill:green;stroke:black;stroke-width:1" /><text x="756" y="1880" font-size="8" style="fill:white"> Una vez comience a hervir, ponemos a fuego lento y esperamos 20 minutos.</text><rect x="680" y="1920" width="200" height="40" style="fill:white;stroke:black;stroke-width:1" /><text x="690" y="1930" font-size="10" style="fill:blue">step</text><path d="M660 1790 C680 1790 660 1940 680 1940" style="fill:transparent;stroke:black" /><text x="690" y="1940" font-size="8" style="fill:black">numero: 4</text><rect x="746" y="1920" width="137" height="40" style="fill:green;stroke:black;stroke-width:1" /><text x="756" y="1930" font-size="8" style="fill:white"> Dejamos reposar y enfriar</text><rect x="680" y="1970" width="200" height="40" style="fill:white;stroke:black;stroke-width:1" /><text x="690" y="1980" font-size="10" style="fill:blue">step</text><path d="M660 1790 C680 1790 660 1990 680 1990" style="fill:transparent;stroke:black" /><text x="690" y="1990" font-size="8" style="fill:black">numero: 5</text><rect x="746" y="1970" width="137" height="40" style="fill:green;stroke:black;stroke-width:1" /><text x="756" y="1980" font-size="8" style="fill:white"> Mezclamos en un bol el arroz, la lechuga en tiras, las aceitunas, el queso y la Zanahoria.
			 Removemos bien mientras se añade la salsa al gusto.</text><rect x="460" y="2070" width="200" height="40" style="fill:white;stroke:black;stroke-width:1" /><text x="470" y="2080" font-size="10" style="fill:blue">tools</text><path d="M440 1440 C460 1440 440 2090 460 2090" style="fill:transparent;stroke:black" /><rect x="680" y="2070" width="200" height="40" style="fill:white;stroke:black;stroke-width:1" /><text x="690" y="2080" font-size="10" style="fill:blue">tool</text><path d="M660 2090 C680 2090 660 2090 680 2090" style="fill:transparent;stroke:black" /><text x="690" y="2090" font-size="8" style="fill:black">nombre: Cazo o vaporera</text><rect x="680" y="2120" width="200" height="40" style="fill:white;stroke:black;stroke-width:1" /><text x="690" y="2130" font-size="10" style="fill:blue">tool</text><path d="M660 2090 C680 2090 660 2140 680 2140" style="fill:transparent;stroke:black" /><text x="690" y="2140" font-size="8" style="fill:black">nombre: Bol</text><rect x="680" y="2170" width="200" height="40" style="fill:white;stroke:black;stroke-width:1" /><text x="690" y="2180" font-size="10" style="fill:blue">tool</text><path d="M660 2090 C680 2090 660 2190 680 2190" style="fill:transparent;stroke:black" /><text x="690" y="2190" font-size="8" style="fill:black">nombre: Cuchara de madera</text><rect x="460" y="2270" width="200" height="40" style="fill:white;stroke:black;stroke-width:1" /><text x="470" y="2280" font-size="10" style="fill:blue">origin</text><path d="M440 1440 C460 1440 440 2290 460 2290" style="fill:transparent;stroke:black" /><rect x="526" y="2270" width="137" height="40" style="fill:green;stroke:black;stroke-width:1" /><text x="536" y="2280" font-size="8" style="fill:white">
		Receta personal.
		</text><rect x="240" y="2370" width="200" height="40" style="fill:white;stroke:black;stroke-width:1" /><text x="250" y="2380" font-size="10" style="fill:blue">recipe</text><path d="M220 40 C240 40 220 2390 240 2390" style="fill:transparent;stroke:black" /><text x="250" y="2390" font-size="8" style="fill:black">nombre: Tarta de queso</text><text x="250" y="2400" font-size="8" style="fill:black">tipo: Postre</text><text x="250" y="2410" font-size="8" style="fill:black">dificultad: fácil</text><text x="250" y="2420" font-size="8" style="fill:black">calorias: 1000</text><text x="250" y="2430" font-size="8" style="fill:black">tiempo_de_elaboracion: 1 hora</text><rect x="460" y="2370" width="200" height="40" style="fill:white;stroke:black;stroke-width:1" /><text x="470" y="2380" font-size="10" style="fill:blue">ingredients</text><path d="M440 2390 C460 2390 440 2390 460 2390" style="fill:transparent;stroke:black" /><rect x="680" y="2370" width="200" height="40" style="fill:white;stroke:black;stroke-width:1" /><text x="690" y="2380" font-size="10" style="fill:blue">ingredient</text><path d="M660 2390 C680 2390 660 2390 680 2390" style="fill:transparent;stroke:black" /><text x="690" y="2390" font-size="8" style="fill:black">nombre: Queso Philadelphia</text><text x="690" y="2400" font-size="8" style="fill:black">cantidad: 350 gramos</text><rect x="680" y="2420" width="200" height="40" style="fill:white;stroke:black;stroke-width:1" /><text x="690" y="2430" font-size="10" style="fill:blue">ingredient</text><path d="M660 2390 C680 2390 660 2440 680 2440" style="fill:transparent;stroke:black" /><text x="690" y="2440" font-size="8" style="fill:black">nombre: Mantequilla</text><text x="690" y="2450" font-size="8" style="fill:black">cantidad: 125 gramos</text><rect x="680" y="2470" width="200" height="40" style="fill:white;stroke:black;stroke-width:1" /><text x="690" y="2480" font-size="10" style="fill:blue">ingredient</text><path d="M660 2390 C680 2390 660 2490 680 2490" style="fill:transparent;stroke:black" /><text x="690" y="2490" font-size="8" style="fill:black">nombre: Nata de repostería</text><text x="690" y="2500" font-size="8" style="fill:black">cantidad: 500 mililitros</text><rect x="680" y="2520" width="200" height="40" style="fill:white;stroke:black;stroke-width:1" /><text x="690" y="2530" font-size="10" style="fill:blue">ingredient</text><path d="M660 2390 C680 2390 660 2540 680 2540" style="fill:transparent;stroke:black" /><text x="690" y="2540" font-size="8" style="fill:black">nombre: Azúcar</text><text x="690" y="2550" font-size="8" style="fill:black">cantidad: 100 gramos</text><rect x="680" y="2570" width="200" height="40" style="fill:white;stroke:black;stroke-width:1" /><text x="690" y="2580" font-size="10" style="fill:blue">ingredient</text><path d="M660 2390 C680 2390 660 2590 680 2590" style="fill:transparent;stroke:black" /><text x="690" y="2590" font-size="8" style="fill:black">nombre: Gelatina</text><text x="690" y="2600" font-size="8" style="fill:black">cantidad: 4 láminas</text><rect x="680" y="2620" width="200" height="40" style="fill:white;stroke:black;stroke-width:1" /><text x="690" y="2630" font-size="10" style="fill:blue">ingredient</text><path d="M660 2390 C680 2390 660 2640 680 2640" style="fill:transparent;stroke:black" /><text x="690" y="2640" font-size="8" style="fill:black">nombre: Mermelada</text><text x="690" y="2650" font-size="8" style="fill:black">cantidad: 1 tarro </text><rect x="460" y="2720" width="200" height="40" style="fill:white;stroke:black;stroke-width:1" /><text x="470" y="2730" font-size="10" style="fill:blue">cooking_steps</text><path d="M440 2390 C460 2390 440 2740 460 2740" style="fill:transparent;stroke:black" /><rect x="680" y="2720" width="200" height="40" style="fill:white;stroke:black;stroke-width:1" /><text x="690" y="2730" font-size="10" style="fill:blue">step</text><path d="M660 2740 C680 2740 660 2740 680 2740" style="fill:transparent;stroke:black" /><text x="690" y="2740" font-size="8" style="fill:black">numero: 1</text><rect x="746" y="2720" width="137" height="40" style="fill:green;stroke:black;stroke-width:1" /><text x="756" y="2730" font-size="8" style="fill:white"> Moler la galleta y mezclarla con la mantequilla derretida hasta crear una pasta.
			 Cubrir con la pasta la base del molde</text><rect x="680" y="2770" width="200" height="40" style="fill:white;stroke:black;stroke-width:1" /><text x="690" y="2780" font-size="10" style="fill:blue">step</text><path d="M660 2740 C680 2740 660 2790 680 2790" style="fill:transparent;stroke:black" /><text x="690" y="2790" font-size="8" style="fill:black">numero: 2</text><rect x="746" y="2770" width="137" height="40" style="fill:green;stroke:black;stroke-width:1" /><text x="756" y="2780" font-size="8" style="fill:white"> Dejar enfriar el molde mientras preparamos la mezcla </text><rect x="680" y="2820" width="200" height="40" style="fill:white;stroke:black;stroke-width:1" /><text x="690" y="2830" font-size="10" style="fill:blue">step</text><path d="M660 2740 C680 2740 660 2840 680 2840" style="fill:transparent;stroke:black" /><text x="690" y="2840" font-size="8" style="fill:black">numero: 3</text><rect x="746" y="2820" width="137" height="40" style="fill:green;stroke:black;stroke-width:1" /><text x="756" y="2830" font-size="8" style="fill:white"> Introducimos la gelatina en agua tibia para que se ablande</text><rect x="680" y="2870" width="200" height="40" style="fill:white;stroke:black;stroke-width:1" /><text x="690" y="2880" font-size="10" style="fill:blue">step</text><path d="M660 2740 C680 2740 660 2890 680 2890" style="fill:transparent;stroke:black" /><text x="690" y="2890" font-size="8" style="fill:black">numero: 4</text><rect x="746" y="2870" width="137" height="40" style="fill:green;stroke:black;stroke-width:1" /><text x="756" y="2880" font-size="8" style="fill:white"> Ponemos a fuego medio el azucar, la nata y el queso. Removemos hasta que este uniforme y añadimos la gelatina hidratada.</text><rect x="680" y="2920" width="200" height="40" style="fill:white;stroke:black;stroke-width:1" /><text x="690" y="2930" font-size="10" style="fill:blue">step</text><path d="M660 2740 C680 2740 660 2940 680 2940" style="fill:transparent;stroke:black" /><text x="690" y="2940" font-size="8" style="fill:black">numero: 5</text><rect x="746" y="2920" width="137" height="40" style="fill:green;stroke:black;stroke-width:1" /><text x="756" y="2930" font-size="8" style="fill:white"> Una vez este ligado perfectamente y sin grumos dejamos reposar.</text><rect x="680" y="2970" width="200" height="40" style="fill:white;stroke:black;stroke-width:1" /><text x="690" y="2980" font-size="10" style="fill:blue">step</text><path d="M660 2740 C680 2740 660 2990 680 2990" style="fill:transparent;stroke:black" /><text x="690" y="2990" font-size="8" style="fill:black">numero: 6</text><rect x="746" y="2970" width="137" height="40" style="fill:green;stroke:black;stroke-width:1" /><text x="756" y="2980" font-size="8" style="fill:white"> Añadimos la mezcla al molde y metemos en la nevera para que enfríe.</text><rect x="680" y="3020" width="200" height="40" style="fill:white;stroke:black;stroke-width:1" /><text x="690" y="3030" font-size="10" style="fill:blue">step</text><path d="M660 2740 C680 2740 660 3040 680 3040" style="fill:transparent;stroke:black" /><text x="690" y="3040" font-size="8" style="fill:black">numero: 7</text><rect x="746" y="3020" width="137" height="40" style="fill:green;stroke:black;stroke-width:1" /><text x="756" y="3030" font-size="8" style="fill:white"> Añadimos la mermelada por encima de la tarta una vez este cuajada. Desmoldamos y servimos. </text><rect x="460" y="3120" width="200" height="40" style="fill:white;stroke:black;stroke-width:1" /><text x="470" y="3130" font-size="10" style="fill:blue">tools</text><path d="M440 2390 C460 2390 440 3140 460 3140" style="fill:transparent;stroke:black" /><rect x="680" y="3120" width="200" height="40" style="fill:white;stroke:black;stroke-width:1" /><text x="690" y="3130" font-size="10" style="fill:blue">tool</text><path d="M660 3140 C680 3140 660 3140 680 3140" style="fill:transparent;stroke:black" /><text x="690" y="3140" font-size="8" style="fill:black">nombre: Cazo</text><rect x="680" y="3170" width="200" height="40" style="fill:white;stroke:black;stroke-width:1" /><text x="690" y="3180" font-size="10" style="fill:blue">tool</text><path d="M660 3140 C680 3140 660 3190 680 3190" style="fill:transparent;stroke:black" /><text x="690" y="3190" font-size="8" style="fill:black">nombre: Molde desmontable</text><rect x="680" y="3220" width="200" height="40" style="fill:white;stroke:black;stroke-width:1" /><text x="690" y="3230" font-size="10" style="fill:blue">tool</text><path d="M660 3140 C680 3140 660 3240 680 3240" style="fill:transparent;stroke:black" /><text x="690" y="3240" font-size="8" style="fill:black">nombre: Fuente</text><rect x="460" y="3320" width="200" height="40" style="fill:white;stroke:black;stroke-width:1" /><text x="470" y="3330" font-size="10" style="fill:blue">origin</text><path d="M440 2390 C460 2390 440 3340 460 3340" style="fill:transparent;stroke:black" /><rect x="526" y="3320" width="137" height="40" style="fill:green;stroke:black;stroke-width:1" /><text x="536" y="3330" font-size="8" style="fill:white">
			Receta del libro de repostería para principiantes.
		</text><rect x="240" y="3420" width="200" height="40" style="fill:white;stroke:black;stroke-width:1" /><text x="250" y="3430" font-size="10" style="fill:blue">recipe</text><path d="M220 40 C240 40 220 3440 240 3440" style="fill:transparent;stroke:black" /><text x="250" y="3440" font-size="8" style="fill:black">nombre: Pasta arrabiata</text><text x="250" y="3450" font-size="8" style="fill:black">tipo: Primer o segundo plato</text><text x="250" y="3460" font-size="8" style="fill:black">dificultad: fácil</text><text x="250" y="3470" font-size="8" style="fill:black">calorias: 800</text><text x="250" y="3480" font-size="8" style="fill:black">tiempo_de_elaboracion: media hora</text><rect x="460" y="3420" width="200" height="40" style="fill:white;stroke:black;stroke-width:1" /><text x="470" y="3430" font-size="10" style="fill:blue">ingredients</text><path d="M440 3440 C460 3440 440 3440 460 3440" style="fill:transparent;stroke:black" /><rect x="680" y="3420" width="200" height="40" style="fill:white;stroke:black;stroke-width:1" /><text x="690" y="3430" font-size="10" style="fill:blue">ingredient</text><path d="M660 3440 C680 3440 660 3440 680 3440" style="fill:transparent;stroke:black" /><text x="690" y="3440" font-size="8" style="fill:black">nombre: Pasta</text><text x="690" y="3450" font-size="8" style="fill:black">cantidad: 400 gramos</text><rect x="680" y="3470" width="200" height="40" style="fill:white;stroke:black;stroke-width:1" /><text x="690" y="3480" font-size="10" style="fill:blue">ingredient</text><path d="M660 3440 C680 3440 660 3490 680 3490" style="fill:transparent;stroke:black" /><text x="690" y="3490" font-size="8" style="fill:black">nombre: Salsa de tomate</text><text x="690" y="3500" font-size="8" style="fill:black">cantidad: 250 gramos</text><rect x="680" y="3520" width="200" height="40" style="fill:white;stroke:black;stroke-width:1" /><text x="690" y="3530" font-size="10" style="fill:blue">ingredient</text><path d="M660 3440 C680 3440 660 3540 680 3540" style="fill:transparent;stroke:black" /><text x="690" y="3540" font-size="8" style="fill:black">nombre: Especias picantes arrabiata</text><text x="690" y="3550" font-size="8" style="fill:black">cantidad: 50 gramos</text><rect x="680" y="3570" width="200" height="40" style="fill:white;stroke:black;stroke-width:1" /><text x="690" y="3580" font-size="10" style="fill:blue">ingredient</text><path d="M660 3440 C680 3440 660 3590 680 3590" style="fill:transparent;stroke:black" /><text x="690" y="3590" font-size="8" style="fill:black">nombre: Cebolla blanca</text><text x="690" y="3600" font-size="8" style="fill:black">cantidad: media</text><rect x="460" y="3670" width="200" height="40" style="fill:white;stroke:black;stroke-width:1" /><text x="470" y="3680" font-size="10" style="fill:blue">cooking_steps</text><path d="M440 3440 C460 3440 440 3690 460 3690" style="fill:transparent;stroke:black" /><rect x="680" y="3670" width="200" height="40" style="fill:white;stroke:black;stroke-width:1" /><text x="690" y="3680" font-size="10" style="fill:blue">step</text><path d="M660 3690 C680 3690 660 3690 680 3690" style="fill:transparent;stroke:black" /><text x="690" y="3690" font-size="8" style="fill:black">numero: 1</text><rect x="746" y="3670" width="137" height="40" style="fill:green;stroke:black;stroke-width:1" /><text x="756" y="3680" font-size="8" style="fill:white"> Ponemos agua a hervir y le echamos un puñado de sal.</text><rect x="680" y="3720" width="200" height="40" style="fill:white;stroke:black;stroke-width:1" /><text x="690" y="3730" font-size="10" style="fill:blue">step</text><path d="M660 3690 C680 3690 660 3740 680 3740" style="fill:transparent;stroke:black" /><text x="690" y="3740" font-size="8" style="fill:black">numero: 2</text><rect x="746" y="3720" width="137" height="40" style="fill:green;stroke:black;stroke-width:1" /><text x="756" y="3730" font-size="8" style="fill:white"> Una vez rompa a hervir echamos la pasta.</text><rect x="680" y="3770" width="200" height="40" style="fill:white;stroke:black;stroke-width:1" /><text x="690" y="3780" font-size="10" style="fill:blue">step</text><path d="M660 3690 C680 3690 660 3790 680 3790" style="fill:transparent;stroke:black" /><text x="690" y="3790" font-size="8" style="fill:black">numero: 3</text><rect x="746" y="3770" width="137" height="40" style="fill:green;stroke:black;stroke-width:1" /><text x="756" y="3780" font-size="8" style="fill:white"> Mientras hierve, picamos en cuadraditos la cebolla</text><rect x="680" y="3820" width="200" height="40" style="fill:white;stroke:black;stroke-width:1" /><text x="690" y="3830" font-size="10" style="fill:blue">step</text><path d="M660 3690 C680 3690 660 3840 680 3840" style="fill:transparent;stroke:black" /><text x="690" y="3840" font-size="8" style="fill:black">numero: 4</text><rect x="746" y="3820" width="137" height="40" style="fill:green;stroke:black;stroke-width:1" /><text x="756" y="3830" font-size="8" style="fill:white"> Sofreimos en una sarten la cebolla. Una vez dorada añadimos la salsa de tomate y esperamos a que hierva.</text><rect x="680" y="3870" width="200" height="40" style="fill:white;stroke:black;stroke-width:1" /><text x="690" y="3880" font-size="10" style="fill:blue">step</text><path d="M660 3690 C680 3690 660 3890 680 3890" style="fill:transparent;stroke:black" /><text x="690" y="3890" font-size="8" style="fill:black">numero: 5</text><rect x="746" y="3870" width="137" height="40" style="fill:green;stroke:black;stroke-width:1" /><text x="756" y="3880" font-size="8" style="fill:white"> Cuando la salsa este hirviendo añadimos las especias, removemos y bajamos a fuego medio. </text><rect x="680" y="3920" width="200" height="40" style="fill:white;stroke:black;stroke-width:1" /><text x="690" y="3930" font-size="10" style="fill:blue">step</text><path d="M660 3690 C680 3690 660 3940 680 3940" style="fill:transparent;stroke:black" /><text x="690" y="3940" font-size="8" style="fill:black">numero: 6</text><rect x="746" y="3920" width="137" height="40" style="fill:green;stroke:black;stroke-width:1" /><text x="756" y="3930" font-size="8" style="fill:white"> Revisamos la pasta, una vez hervida retiramos del fuego y colamos bien</text><rect x="680" y="3970" width="200" height="40" style="fill:white;stroke:black;stroke-width:1" /><text x="690" y="3980" font-size="10" style="fill:blue">step</text><path d="M660 3690 C680 3690 660 3990 680 3990" style="fill:transparent;stroke:black" /><text x="690" y="3990" font-size="8" style="fill:black">numero: 7</text><rect x="746" y="3970" width="137" height="40" style="fill:green;stroke:black;stroke-width:1" /><text x="756" y="3980" font-size="8" style="fill:white"> Añadimos la pasta recudida a la sarten y lo mezclamos todo.</text><rect x="460" y="4070" width="200" height="40" style="fill:white;stroke:black;stroke-width:1" /><text x="470" y="4080" font-size="10" style="fill:blue">tools</text><path d="M440 3440 C460 3440 440 4090 460 4090" style="fill:transparent;stroke:black" /><rect x="680" y="4070" width="200" height="40" style="fill:white;stroke:black;stroke-width:1" /><text x="690" y="4080" font-size="10" style="fill:blue">tool</text><path d="M660 4090 C680 4090 660 4090 680 4090" style="fill:transparent;stroke:black" /><text x="690" y="4090" font-size="8" style="fill:black">nombre: Sarten</text><rect x="680" y="4120" width="200" height="40" style="fill:white;stroke:black;stroke-width:1" /><text x="690" y="4130" font-size="10" style="fill:blue">tool</text><path d="M660 4090 C680 4090 660 4140 680 4140" style="fill:transparent;stroke:black" /><text x="690" y="4140" font-size="8" style="fill:black">nombre: Olla</text><rect x="680" y="4170" width="200" height="40" style="fill:white;stroke:black;stroke-width:1" /><text x="690" y="4180" font-size="10" style="fill:blue">tool</text><path d="M660 4090 C680 4090 660 4190 680 4190" style="fill:transparent;stroke:black" /><text x="690" y="4190" font-size="8" style="fill:black">nombre: Fuente</text><rect x="680" y="4220" width="200" height="40" style="fill:white;stroke:black;stroke-width:1" /><text x="690" y="4230" font-size="10" style="fill:blue">tool</text><path d="M660 4090 C680 4090 660 4240 680 4240" style="fill:transparent;stroke:black" /><text x="690" y="4240" font-size="8" style="fill:black">nombre: Escurridor</text><rect x="680" y="4270" width="200" height="40" style="fill:white;stroke:black;stroke-width:1" /><text x="690" y="4280" font-size="10" style="fill:blue">tool</text><path d="M660 4090 C680 4090 660 4290 680 4290" style="fill:transparent;stroke:black" /><text x="690" y="4290" font-size="8" style="fill:black">nombre: Cuchara</text><rect x="460" y="4370" width="200" height="40" style="fill:white;stroke:black;stroke-width:1" /><text x="470" y="4380" font-size="10" style="fill:blue">origin</text><path d="M440 3440 C460 3440 440 4390 460 4390" style="fill:transparent;stroke:black" /><rect x="526" y="4370" width="137" height="40" style="fill:green;stroke:black;stroke-width:1" /><text x="536" y="4380" font-size="8" style="fill:white">
			Receta italiana. 
		</text><rect x="240" y="4470" width="200" height="40" style="fill:white;stroke:black;stroke-width:1" /><text x="250" y="4480" font-size="10" style="fill:blue">recipe</text><path d="M220 40 C240 40 220 4490 240 4490" style="fill:transparent;stroke:black" /><text x="250" y="4490" font-size="8" style="fill:black">nombre: Pollo al ajillo</text><text x="250" y="4500" font-size="8" style="fill:black">tipo: Entrante</text><text x="250" y="4510" font-size="8" style="fill:black">dificultad: media</text><text x="250" y="4520" font-size="8" style="fill:black">calorias: 600</text><text x="250" y="4530" font-size="8" style="fill:black">tiempo_de_elaboracion: media hora</text><rect x="460" y="4470" width="200" height="40" style="fill:white;stroke:black;stroke-width:1" /><text x="470" y="4480" font-size="10" style="fill:blue">ingredients</text><path d="M440 4490 C460 4490 440 4490 460 4490" style="fill:transparent;stroke:black" /><rect x="680" y="4470" width="200" height="40" style="fill:white;stroke:black;stroke-width:1" /><text x="690" y="4480" font-size="10" style="fill:blue">ingredient</text><path d="M660 4490 C680 4490 660 4490 680 4490" style="fill:transparent;stroke:black" /><text x="690" y="4490" font-size="8" style="fill:black">nombre: Pollo, ya troceado</text><text x="690" y="4500" font-size="8" style="fill:black">cantidad: 500 gramos</text><rect x="680" y="4520" width="200" height="40" style="fill:white;stroke:black;stroke-width:1" /><text x="690" y="4530" font-size="10" style="fill:blue">ingredient</text><path d="M660 4490 C680 4490 660 4540 680 4540" style="fill:transparent;stroke:black" /><text x="690" y="4540" font-size="8" style="fill:black">nombre: Ajo</text><text x="690" y="4550" font-size="8" style="fill:black">cantidad: 3 o 4 dientes</text><rect x="680" y="4570" width="200" height="40" style="fill:white;stroke:black;stroke-width:1" /><text x="690" y="4580" font-size="10" style="fill:blue">ingredient</text><path d="M660 4490 C680 4490 660 4590 680 4590" style="fill:transparent;stroke:black" /><text x="690" y="4590" font-size="8" style="fill:black">nombre: Harina</text><text x="690" y="4600" font-size="8" style="fill:black">cantidad: ! paquete, para rebozar</text><rect x="460" y="4670" width="200" height="40" style="fill:white;stroke:black;stroke-width:1" /><text x="470" y="4680" font-size="10" style="fill:blue">cooking_steps</text><path d="M440 4490 C460 4490 440 4690 460 4690" style="fill:transparent;stroke:black" /><rect x="680" y="4670" width="200" height="40" style="fill:white;stroke:black;stroke-width:1" /><text x="690" y="4680" font-size="10" style="fill:blue">step</text><path d="M660 4690 C680 4690 660 4690 680 4690" style="fill:transparent;stroke:black" /><text x="690" y="4690" font-size="8" style="fill:black">numero: 1</text><rect x="746" y="4670" width="137" height="40" style="fill:green;stroke:black;stroke-width:1" /><text x="756" y="4680" font-size="8" style="fill:white"> Picamos el ajo en rodajas</text><rect x="680" y="4720" width="200" height="40" style="fill:white;stroke:black;stroke-width:1" /><text x="690" y="4730" font-size="10" style="fill:blue">step</text><path d="M660 4690 C680 4690 660 4740 680 4740" style="fill:transparent;stroke:black" /><text x="690" y="4740" font-size="8" style="fill:black">numero: 2</text><rect x="746" y="4720" width="137" height="40" style="fill:green;stroke:black;stroke-width:1" /><text x="756" y="4730" font-size="8" style="fill:white"> Vertemos el aceite en una sarten y la ponemos a fuego medio</text><rect x="680" y="4770" width="200" height="40" style="fill:white;stroke:black;stroke-width:1" /><text x="690" y="4780" font-size="10" style="fill:blue">step</text><path d="M660 4690 C680 4690 660 4790 680 4790" style="fill:transparent;stroke:black" /><text x="690" y="4790" font-size="8" style="fill:black">numero: 3</text><rect x="746" y="4770" width="137" height="40" style="fill:green;stroke:black;stroke-width:1" /><text x="756" y="4780" font-size="8" style="fill:white"> Enharinamos el pollo </text><rect x="680" y="4820" width="200" height="40" style="fill:white;stroke:black;stroke-width:1" /><text x="690" y="4830" font-size="10" style="fill:blue">step</text><path d="M660 4690 C680 4690 660 4840 680 4840" style="fill:transparent;stroke:black" /><text x="690" y="4840" font-size="8" style="fill:black">numero: 4</text><rect x="746" y="4820" width="137" height="40" style="fill:green;stroke:black;stroke-width:1" /><text x="756" y="4830" font-size="8" style="fill:white"> Echamos el ajo y el pollo en la sartén </text><rect x="680" y="4870" width="200" height="40" style="fill:white;stroke:black;stroke-width:1" /><text x="690" y="4880" font-size="10" style="fill:blue">step</text><path d="M660 4690 C680 4690 660 4890 680 4890" style="fill:transparent;stroke:black" /><text x="690" y="4890" font-size="8" style="fill:black">numero: 5</text><rect x="746" y="4870" width="137" height="40" style="fill:green;stroke:black;stroke-width:1" /><text x="756" y="4880" font-size="8" style="fill:white"> Una vez frito retiramos el ajo y el pollo y lo ponemos en la bandeja cubierta con papel de cocina.</text><rect x="460" y="4970" width="200" height="40" style="fill:white;stroke:black;stroke-width:1" /><text x="470" y="4980" font-size="10" style="fill:blue">tools</text><path d="M440 4490 C460 4490 440 4990 460 4990" style="fill:transparent;stroke:black" /><rect x="680" y="4970" width="200" height="40" style="fill:white;stroke:black;stroke-width:1" /><text x="690" y="4980" font-size="10" style="fill:blue">tool</text><path d="M660 4990 C680 4990 660 4990 680 4990" style="fill:transparent;stroke:black" /><text x="690" y="4990" font-size="8" style="fill:black">nombre: Sarten</text><rect x="680" y="5020" width="200" height="40" style="fill:white;stroke:black;stroke-width:1" /><text x="690" y="5030" font-size="10" style="fill:blue">tool</text><path d="M660 4990 C680 4990 660 5040 680 5040" style="fill:transparent;stroke:black" /><text x="690" y="5040" font-size="8" style="fill:black">nombre: Papel de Cocina</text><rect x="680" y="5070" width="200" height="40" style="fill:white;stroke:black;stroke-width:1" /><text x="690" y="5080" font-size="10" style="fill:blue">tool</text><path d="M660 4990 C680 4990 660 5090 680 5090" style="fill:transparent;stroke:black" /><text x="690" y="5090" font-size="8" style="fill:black">nombre: Bandeja</text><rect x="680" y="5120" width="200" height="40" style="fill:white;stroke:black;stroke-width:1" /><text x="690" y="5130" font-size="10" style="fill:blue">tool</text><path d="M660 4990 C680 4990 660 5140 680 5140" style="fill:transparent;stroke:black" /><text x="690" y="5140" font-size="8" style="fill:black">nombre: Espumadera</text><rect x="460" y="5220" width="200" height="40" style="fill:white;stroke:black;stroke-width:1" /><text x="470" y="5230" font-size="10" style="fill:blue">origin</text><path d="M440 4490 C460 4490 440 5240 460 5240" style="fill:transparent;stroke:black" /><rect x="526" y="5220" width="137" height="40" style="fill:green;stroke:black;stroke-width:1" /><text x="536" y="5230" font-size="8" style="fill:white">
			Receta de mi madre.
		</text></svg>