<?xml version="1.0" encoding="utf-8"?><svg width="auto" height="1720" style="overflow:visible " version="1.1" xmlns="http://www.w3.org/2000/svg"><rect x="20" y="20" width="200" height="40" style="fill:white;stroke:black;stroke-width:1" /><text x="30" y="30" font-size="10" style="fill:blue">articles</text><rect x="240" y="20" width="200" height="40" style="fill:white;stroke:black;stroke-width:1" /><text x="250" y="30" font-size="10" style="fill:blue">article</text><path d="M220 40 C240 40 220 40 240 40" style="fill:transparent;stroke:black" /><text x="250" y="40" font-size="8" style="fill:black">titulo: Driver Fatigue Detection using Mean Intensity, SVM, and SIFT</text><text x="250" y="50" font-size="8" style="fill:black">pagina_inicio: 1</text><text x="250" y="60" font-size="8" style="fill:black">pagina_final:  8</text><text x="250" y="70" font-size="8" style="fill:black">año: 2017</text><rect x="460" y="20" width="200" height="40" style="fill:white;stroke:black;stroke-width:1" /><text x="470" y="30" font-size="10" style="fill:blue">authors</text><path d="M440 40 C460 40 440 40 460 40" style="fill:transparent;stroke:black" /><rect x="680" y="20" width="200" height="40" style="fill:white;stroke:black;stroke-width:1" /><text x="690" y="30" font-size="10" style="fill:blue">author</text><path d="M660 40 C680 40 660 40 680 40" style="fill:transparent;stroke:black" /><text x="690" y="40" font-size="8" style="fill:black">nombre: Naz S</text><text x="690" y="50" font-size="8" style="fill:black">email: </text><rect x="680" y="70" width="200" height="40" style="fill:white;stroke:black;stroke-width:1" /><text x="690" y="80" font-size="10" style="fill:blue">author</text><path d="M660 40 C680 40 660 90 680 90" style="fill:transparent;stroke:black" /><text x="690" y="90" font-size="8" style="fill:black">nombre: Ziauddin S</text><text x="690" y="100" font-size="8" style="fill:black">email: </text><rect x="680" y="120" width="200" height="40" style="fill:white;stroke:black;stroke-width:1" /><text x="690" y="130" font-size="10" style="fill:blue">author</text><path d="M660 40 C680 40 660 140 680 140" style="fill:transparent;stroke:black" /><text x="690" y="140" font-size="8" style="fill:black">nombre: A. R. Shahid</text><text x="690" y="150" font-size="8" style="fill:black">email: </text><rect x="460" y="220" width="200" height="40" style="fill:white;stroke:black;stroke-width:1" /><text x="470" y="230" font-size="10" style="fill:blue">abstract</text><path d="M440 40 C460 40 440 240 460 240" style="fill:transparent;stroke:black" /><rect x="526" y="220" width="137" height="40" style="fill:green;stroke:black;stroke-width:1" /><text x="536" y="230" font-size="8" style="fill:white">
		Driver fatigue is one of the major causes of accidents. This has increased the need for driver fatigue detection mechanism in the vehicles to reduce human and vehicle loss during accidents. In the proposed scheme, we capture videos from a camera mounted inside the vehicle. From the captured video, we localize the eyes using Viola-Jones algorithm. Once the eyes have been localized, they are classified as open or closed using three different techniques namely mean intensity, SVM, and SIFT. If eyes are found closed for a considerable amount of time, it indicates fatigue and consequently an alarm is generated to alert the driver. Our experiments show that SIFT outperforms both mean intensity and SVM, achieving an average accuracy of 97.45% on a dataset of five videos, each having a length of two minutes.
	</text><rect x="460" y="270" width="200" height="40" style="fill:white;stroke:black;stroke-width:1" /><text x="470" y="280" font-size="10" style="fill:blue">keywordset</text><path d="M440 40 C460 40 440 290 460 290" style="fill:transparent;stroke:black" /><rect x="526" y="270" width="137" height="40" style="fill:green;stroke:black;stroke-width:1" /><text x="536" y="280" font-size="8" style="fill:white">
		Driver Fatigue Detection, Eye Detection, Scale Invariant Feature Transform, Support Vector Machine, Traffic Accidents.
	</text><rect x="460" y="320" width="200" height="40" style="fill:white;stroke:black;stroke-width:1" /><text x="470" y="330" font-size="10" style="fill:blue">magazine</text><path d="M440 40 C460 40 440 340 460 340" style="fill:transparent;stroke:black" /><text x="470" y="340" font-size="8" style="fill:black">nombre: Ijimai</text><text x="470" y="350" font-size="8" style="fill:black">volumenum: 1</text><rect x="240" y="420" width="200" height="40" style="fill:white;stroke:black;stroke-width:1" /><text x="250" y="430" font-size="10" style="fill:blue">article</text><path d="M220 40 C240 40 220 440 240 440" style="fill:transparent;stroke:black" /><text x="250" y="440" font-size="8" style="fill:black">titulo: Development of Injuries Prevention Policies in Mexico: A Big Data Approach</text><text x="250" y="450" font-size="8" style="fill:black">pagina_inicio: 1</text><text x="250" y="460" font-size="8" style="fill:black">pagina_final: 7</text><text x="250" y="470" font-size="8" style="fill:black">año: 2017</text><rect x="460" y="420" width="200" height="40" style="fill:white;stroke:black;stroke-width:1" /><text x="470" y="430" font-size="10" style="fill:blue">authors</text><path d="M440 440 C460 440 440 440 460 440" style="fill:transparent;stroke:black" /><rect x="680" y="420" width="200" height="40" style="fill:white;stroke:black;stroke-width:1" /><text x="690" y="430" font-size="10" style="fill:blue">author</text><path d="M660 440 C680 440 660 440 680 440" style="fill:transparent;stroke:black" /><text x="690" y="440" font-size="8" style="fill:black">nombre: Croda</text><text x="690" y="450" font-size="8" style="fill:black">email: </text><rect x="680" y="470" width="200" height="40" style="fill:white;stroke:black;stroke-width:1" /><text x="690" y="480" font-size="10" style="fill:blue">author</text><path d="M660 440 C680 440 660 490 680 490" style="fill:transparent;stroke:black" /><text x="690" y="490" font-size="8" style="fill:black">nombre: R. M. C.</text><text x="690" y="500" font-size="8" style="fill:black">email: </text><rect x="680" y="520" width="200" height="40" style="fill:white;stroke:black;stroke-width:1" /><text x="690" y="530" font-size="10" style="fill:blue">author</text><path d="M660 440 C680 440 660 540 680 540" style="fill:transparent;stroke:black" /><text x="690" y="540" font-size="8" style="fill:black">nombre: D. E. G. Romero</text><text x="690" y="550" font-size="8" style="fill:black">email: </text><rect x="460" y="620" width="200" height="40" style="fill:white;stroke:black;stroke-width:1" /><text x="470" y="630" font-size="10" style="fill:blue">abstract</text><path d="M440 440 C460 440 440 640 460 640" style="fill:transparent;stroke:black" /><rect x="526" y="620" width="137" height="40" style="fill:green;stroke:black;stroke-width:1" /><text x="536" y="630" font-size="8" style="fill:white">
		Considering that Mexican injuries prevention strategies have been focused on injuries caused by car accidents and gender violence, a whole analysis of the injuries registered are performed in this paper to have a wider overview of those agents that can cause injuries around the country. Taking into account the amount of information from both public and private sources, obtained from dynamic cubes reported by the Minister of Health, Big Data strategies are used with the objective of finding an appropriate extraction such as to identify the real correlations between the different variables registered by the Health Sector. The results of the analysis show areas of opportunity to improve the public policies on the subject, particularly in diminishing wounds at living place, public road (pedestrians) and work.
	</text><rect x="460" y="670" width="200" height="40" style="fill:white;stroke:black;stroke-width:1" /><text x="470" y="680" font-size="10" style="fill:blue">keywordset</text><path d="M440 440 C460 440 440 690 460 690" style="fill:transparent;stroke:black" /><rect x="526" y="670" width="137" height="40" style="fill:green;stroke:black;stroke-width:1" /><text x="536" y="680" font-size="8" style="fill:white">
		Big Data, DSS, Learning
	</text><rect x="460" y="720" width="200" height="40" style="fill:white;stroke:black;stroke-width:1" /><text x="470" y="730" font-size="10" style="fill:blue">magazine</text><path d="M440 440 C460 440 440 740 460 740" style="fill:transparent;stroke:black" /><text x="470" y="740" font-size="8" style="fill:black">nombre: Ijimai</text><text x="470" y="750" font-size="8" style="fill:black">volumenum: 1</text><rect x="240" y="820" width="200" height="40" style="fill:white;stroke:black;stroke-width:1" /><text x="250" y="830" font-size="10" style="fill:blue">article</text><path d="M220 40 C240 40 220 840 240 840" style="fill:transparent;stroke:black" /><text x="250" y="840" font-size="8" style="fill:black">titulo: Selecting Statistical Characteristics of Brain Signals to Detect Epileptic Seizures using Discrete Wavelet Transform and Perceptron Neural Network</text><text x="250" y="850" font-size="8" style="fill:black">pagina_inicio: 33</text><text x="250" y="860" font-size="8" style="fill:black">pagina_final: 38</text><text x="250" y="870" font-size="8" style="fill:black">año: 2017</text><rect x="460" y="820" width="200" height="40" style="fill:white;stroke:black;stroke-width:1" /><text x="470" y="830" font-size="10" style="fill:blue">authors</text><path d="M440 840 C460 840 440 840 460 840" style="fill:transparent;stroke:black" /><rect x="680" y="820" width="200" height="40" style="fill:white;stroke:black;stroke-width:1" /><text x="690" y="830" font-size="10" style="fill:blue">author</text><path d="M660 840 C680 840 660 840 680 840" style="fill:transparent;stroke:black" /><text x="690" y="840" font-size="8" style="fill:black">nombre: Abbasi, R.</text><text x="690" y="850" font-size="8" style="fill:black">email: </text><rect x="680" y="870" width="200" height="40" style="fill:white;stroke:black;stroke-width:1" /><text x="690" y="880" font-size="10" style="fill:blue">author</text><path d="M660 840 C680 840 660 890 680 890" style="fill:transparent;stroke:black" /><text x="690" y="890" font-size="8" style="fill:black">nombre: M. Esmaeipour</text><text x="690" y="900" font-size="8" style="fill:black">email: </text><rect x="460" y="970" width="200" height="40" style="fill:white;stroke:black;stroke-width:1" /><text x="470" y="980" font-size="10" style="fill:blue">abstract</text><path d="M440 840 C460 840 440 990 460 990" style="fill:transparent;stroke:black" /><rect x="526" y="970" width="137" height="40" style="fill:green;stroke:black;stroke-width:1" /><text x="536" y="980" font-size="8" style="fill:white">
		Electroencephalogram signals (EEG) have always been used in medical diagnosis. Evaluation of the statistical characteristics of EEG signals is actually the foundation of all brain signal processing methods. Since the correct prediction of disease status is of utmost importance, the goal is to use those models that have minimum error and maximum reliability. In anautomatic epileptic seizure detection system, we should be able to distinguish between EEG signals before, during and after seizure. Extracting useful characteristics from EEG data can greatly increase the classification accuracy. In this new approach, we first parse EEG signals to sub-bands in different categories with the help of discrete wavelet transform(DWT) and then we derive statistical characteristics such as maximum, minimum, average and standard deviation for each sub-band. A multilayer perceptron (MLP)neural network was used to assess the different scenarios of healthy and seizure among the collected signal sets. In order to assess the success and effectiveness of the proposed method, the confusion matrix was used and its accuracy was achieved98.33 percent. Due to the limitations and obstacles in analyzing EEG signals, the proposed method can greatly help professionals experimentally and visually in the classification and diagnosis of epileptic seizures.
	</text><rect x="460" y="1020" width="200" height="40" style="fill:white;stroke:black;stroke-width:1" /><text x="470" y="1030" font-size="10" style="fill:blue">keywordset</text><path d="M440 840 C460 840 440 1040 460 1040" style="fill:transparent;stroke:black" /><rect x="526" y="1020" width="137" height="40" style="fill:green;stroke:black;stroke-width:1" /><text x="536" y="1030" font-size="8" style="fill:white">
		Accuracy, Discrete Wavelet Transforms, Medicine, Multilayer Perceptron, Neural Network
	</text><rect x="460" y="1070" width="200" height="40" style="fill:white;stroke:black;stroke-width:1" /><text x="470" y="1080" font-size="10" style="fill:blue">magazine</text><path d="M440 840 C460 840 440 1090 460 1090" style="fill:transparent;stroke:black" /><text x="470" y="1090" font-size="8" style="fill:black">nombre: Ijimai</text><text x="470" y="1100" font-size="8" style="fill:black">volumenum: 4</text><rect x="240" y="1170" width="200" height="40" style="fill:white;stroke:black;stroke-width:1" /><text x="250" y="1180" font-size="10" style="fill:blue">article</text><path d="M220 40 C240 40 220 1190 240 1190" style="fill:transparent;stroke:black" /><text x="250" y="1190" font-size="8" style="fill:black">titulo: Step Characterization using Sensor Information Fusion and Machine Learning</text><text x="250" y="1200" font-size="8" style="fill:black">pagina_inicio: 53</text><text x="250" y="1210" font-size="8" style="fill:black">pagina_final: 60</text><text x="250" y="1220" font-size="8" style="fill:black">año: 2015</text><rect x="460" y="1170" width="200" height="40" style="fill:white;stroke:black;stroke-width:1" /><text x="470" y="1180" font-size="10" style="fill:blue">authors</text><path d="M440 1190 C460 1190 440 1190 460 1190" style="fill:transparent;stroke:black" /><rect x="680" y="1170" width="200" height="40" style="fill:white;stroke:black;stroke-width:1" /><text x="690" y="1180" font-size="10" style="fill:blue">author</text><path d="M660 1190 C680 1190 660 1190 680 1190" style="fill:transparent;stroke:black" /><text x="690" y="1190" font-size="8" style="fill:black">nombre: Anacleto, R.</text><text x="690" y="1200" font-size="8" style="fill:black">email: </text><rect x="680" y="1220" width="200" height="40" style="fill:white;stroke:black;stroke-width:1" /><text x="690" y="1230" font-size="10" style="fill:blue">author</text><path d="M660 1190 C680 1190 660 1240 680 1240" style="fill:transparent;stroke:black" /><text x="690" y="1240" font-size="8" style="fill:black">nombre: L. Figueiredo</text><text x="690" y="1250" font-size="8" style="fill:black">email: </text><rect x="680" y="1270" width="200" height="40" style="fill:white;stroke:black;stroke-width:1" /><text x="690" y="1280" font-size="10" style="fill:blue">author</text><path d="M660 1190 C680 1190 660 1290 680 1290" style="fill:transparent;stroke:black" /><text x="690" y="1290" font-size="8" style="fill:black">nombre: A. Almeida</text><text x="690" y="1300" font-size="8" style="fill:black">email: </text><rect x="680" y="1320" width="200" height="40" style="fill:white;stroke:black;stroke-width:1" /><text x="690" y="1330" font-size="10" style="fill:blue">author</text><path d="M660 1190 C680 1190 660 1340 680 1340" style="fill:transparent;stroke:black" /><text x="690" y="1340" font-size="8" style="fill:black">nombre: P. Novais</text><text x="690" y="1350" font-size="8" style="fill:black">email: </text><rect x="680" y="1370" width="200" height="40" style="fill:white;stroke:black;stroke-width:1" /><text x="690" y="1380" font-size="10" style="fill:blue">author</text><path d="M660 1190 C680 1190 660 1390 680 1390" style="fill:transparent;stroke:black" /><text x="690" y="1390" font-size="8" style="fill:black">nombre: A. Meireles</text><text x="690" y="1400" font-size="8" style="fill:black">email: </text><rect x="460" y="1470" width="200" height="40" style="fill:white;stroke:black;stroke-width:1" /><text x="470" y="1480" font-size="10" style="fill:blue">abstract</text><path d="M440 1190 C460 1190 440 1490 460 1490" style="fill:transparent;stroke:black" /><rect x="526" y="1470" width="137" height="40" style="fill:green;stroke:black;stroke-width:1" /><text x="536" y="1480" font-size="8" style="fill:white">
		A pedestrian inertial navigation system is typically used to suppress the Global Navigation Satellite System limitation to track persons in indoor or in dense environments. However, low- cost inertial systems provide huge location estimation errors due to sensors and pedestrian dead reckoning inherent characteristics. To suppress some of these errors we propose a system that uses two inertial measurement units spread in person’s body, which measurements are aggregated using learning algorithms that learn the gait behaviors. In this work we present our results on using different machine learning algorithms which are used to characterize the step according to its direction and length. This characterization is then used to adapt the navigation algorithm according to the performed classifications.
	</text><rect x="460" y="1520" width="200" height="40" style="fill:white;stroke:black;stroke-width:1" /><text x="470" y="1530" font-size="10" style="fill:blue">keywordset</text><path d="M440 1190 C460 1190 440 1540 460 1540" style="fill:transparent;stroke:black" /><rect x="526" y="1520" width="137" height="40" style="fill:green;stroke:black;stroke-width:1" /><text x="536" y="1530" font-size="8" style="fill:white">
			Algorithms, Information Fusion, Learning, Localization, Machine Learning
	</text><rect x="460" y="1570" width="200" height="40" style="fill:white;stroke:black;stroke-width:1" /><text x="470" y="1580" font-size="10" style="fill:blue">magazine</text><path d="M440 1190 C460 1190 440 1590 460 1590" style="fill:transparent;stroke:black" /><text x="470" y="1590" font-size="8" style="fill:black">nombre: Ijimai</text><text x="470" y="1600" font-size="8" style="fill:black">volumenum: 3</text></svg>