<?xml version="1.0" encoding="utf-8"?><svg width="auto" height="1820" style="overflow:visible " version="1.1" xmlns="http://www.w3.org/2000/svg"><rect x="20" y="20" width="200" height="40" style="fill:white;stroke:black;stroke-width:1" /><text x="30" y="30" font-size="10" style="fill:blue">xsl:stylesheet</text><text x="30" y="40" font-size="8" style="fill:black">version: 1.0</text><text x="30" y="50" font-size="8" style="fill:black">xmlns:xsl: http://www.w3.org/1999/XSL/Transform</text><rect x="240" y="20" width="200" height="40" style="fill:white;stroke:black;stroke-width:1" /><text x="250" y="30" font-size="10" style="fill:blue">xsl:output</text><path d="M220 40 C240 40 220 40 240 40" style="fill:transparent;stroke:black" /><text x="250" y="40" font-size="8" style="fill:black">method: html</text><rect x="240" y="70" width="200" height="40" style="fill:white;stroke:black;stroke-width:1" /><text x="250" y="80" font-size="10" style="fill:blue">xsl:template</text><path d="M220 40 C240 40 220 90 240 90" style="fill:transparent;stroke:black" /><text x="250" y="90" font-size="8" style="fill:black">match: /</text><rect x="460" y="70" width="200" height="40" style="fill:white;stroke:black;stroke-width:1" /><text x="470" y="80" font-size="10" style="fill:blue">html</text><path d="M440 90 C460 90 440 90 460 90" style="fill:transparent;stroke:black" /><rect x="680" y="70" width="200" height="40" style="fill:white;stroke:black;stroke-width:1" /><text x="690" y="80" font-size="10" style="fill:blue">head</text><path d="M660 90 C680 90 660 90 680 90" style="fill:transparent;stroke:black" /><rect x="900" y="70" width="200" height="40" style="fill:white;stroke:black;stroke-width:1" /><text x="910" y="80" font-size="10" style="fill:blue">title</text><path d="M880 90 C900 90 880 90 900 90" style="fill:transparent;stroke:black" /><rect x="966" y="70" width="137" height="40" style="fill:green;stroke:black;stroke-width:1" /><text x="976" y="80" font-size="8" style="fill:white">Articulos de mi practica de laboratorio</text><rect x="900" y="120" width="200" height="40" style="fill:white;stroke:black;stroke-width:1" /><text x="910" y="130" font-size="10" style="fill:blue">link</text><path d="M880 90 C900 90 880 140 900 140" style="fill:transparent;stroke:black" /><text x="910" y="140" font-size="8" style="fill:black">rel: stylesheet</text><text x="910" y="150" font-size="8" style="fill:black">type: text/css</text><text x="910" y="160" font-size="8" style="fill:black">href: estilo.css</text><rect x="680" y="220" width="200" height="40" style="fill:white;stroke:black;stroke-width:1" /><text x="690" y="230" font-size="10" style="fill:blue">body</text><path d="M660 90 C680 90 660 240 680 240" style="fill:transparent;stroke:black" /><rect x="900" y="220" width="200" height="40" style="fill:white;stroke:black;stroke-width:1" /><text x="910" y="230" font-size="10" style="fill:blue">h1</text><path d="M880 240 C900 240 880 240 900 240" style="fill:transparent;stroke:black" /><rect x="966" y="220" width="137" height="40" style="fill:green;stroke:black;stroke-width:1" /><text x="976" y="230" font-size="8" style="fill:white">Seleccion de Articulos</text><rect x="900" y="270" width="200" height="40" style="fill:white;stroke:black;stroke-width:1" /><text x="910" y="280" font-size="10" style="fill:blue">xsl:for-each</text><path d="M880 240 C900 240 880 290 900 290" style="fill:transparent;stroke:black" /><text x="910" y="290" font-size="8" style="fill:black">select: articles/article</text><rect x="1120" y="270" width="200" height="40" style="fill:white;stroke:black;stroke-width:1" /><text x="1130" y="280" font-size="10" style="fill:blue">h2</text><path d="M1100 290 C1120 290 1100 290 1120 290" style="fill:transparent;stroke:black" /><rect x="1340" y="270" width="200" height="40" style="fill:white;stroke:black;stroke-width:1" /><text x="1350" y="280" font-size="10" style="fill:blue">xsl:value-of</text><path d="M1320 290 C1340 290 1320 290 1340 290" style="fill:transparent;stroke:black" /><text x="1350" y="290" font-size="8" style="fill:black">select: @titulo</text><rect x="1120" y="370" width="200" height="40" style="fill:white;stroke:black;stroke-width:1" /><text x="1130" y="380" font-size="10" style="fill:blue">p</text><path d="M1100 290 C1120 290 1100 390 1120 390" style="fill:transparent;stroke:black" /><rect x="1186" y="370" width="137" height="40" style="fill:green;stroke:black;stroke-width:1" /><text x="1196" y="380" font-size="8" style="fill:white">Página inicio:
                                                                                                                                                            
                        </text><rect x="1340" y="370" width="200" height="40" style="fill:white;stroke:black;stroke-width:1" /><text x="1350" y="380" font-size="10" style="fill:blue">xsl:value-of</text><path d="M1320 390 C1340 390 1320 390 1340 390" style="fill:transparent;stroke:black" /><text x="1350" y="390" font-size="8" style="fill:black">select: @pagina_inicio</text><rect x="1120" y="470" width="200" height="40" style="fill:white;stroke:black;stroke-width:1" /><text x="1130" y="480" font-size="10" style="fill:blue">p</text><path d="M1100 290 C1120 290 1100 490 1120 490" style="fill:transparent;stroke:black" /><rect x="1186" y="470" width="137" height="40" style="fill:green;stroke:black;stroke-width:1" /><text x="1196" y="480" font-size="8" style="fill:white">Página final:
                                                                                                                                                            
                        </text><rect x="1340" y="470" width="200" height="40" style="fill:white;stroke:black;stroke-width:1" /><text x="1350" y="480" font-size="10" style="fill:blue">xsl:value-of</text><path d="M1320 490 C1340 490 1320 490 1340 490" style="fill:transparent;stroke:black" /><text x="1350" y="490" font-size="8" style="fill:black">select: @pagina_final</text><rect x="1120" y="570" width="200" height="40" style="fill:white;stroke:black;stroke-width:1" /><text x="1130" y="580" font-size="10" style="fill:blue">p</text><path d="M1100 290 C1120 290 1100 590 1120 590" style="fill:transparent;stroke:black" /><rect x="1186" y="570" width="137" height="40" style="fill:green;stroke:black;stroke-width:1" /><text x="1196" y="580" font-size="8" style="fill:white">Año:                                                                                                                                                         
                        </text><rect x="1340" y="570" width="200" height="40" style="fill:white;stroke:black;stroke-width:1" /><text x="1350" y="580" font-size="10" style="fill:blue">xsl:value-of</text><path d="M1320 590 C1340 590 1320 590 1340 590" style="fill:transparent;stroke:black" /><text x="1350" y="590" font-size="8" style="fill:black">select: @año</text><rect x="1120" y="670" width="200" height="40" style="fill:white;stroke:black;stroke-width:1" /><text x="1130" y="680" font-size="10" style="fill:blue">h3</text><path d="M1100 290 C1120 290 1100 690 1120 690" style="fill:transparent;stroke:black" /><rect x="1186" y="670" width="137" height="40" style="fill:green;stroke:black;stroke-width:1" /><text x="1196" y="680" font-size="8" style="fill:white">Autores</text><rect x="1120" y="720" width="200" height="40" style="fill:white;stroke:black;stroke-width:1" /><text x="1130" y="730" font-size="10" style="fill:blue">xsl:for-each</text><path d="M1100 290 C1120 290 1100 740 1120 740" style="fill:transparent;stroke:black" /><text x="1130" y="740" font-size="8" style="fill:black">select: authors/*</text><rect x="1340" y="720" width="200" height="40" style="fill:white;stroke:black;stroke-width:1" /><text x="1350" y="730" font-size="10" style="fill:blue">p</text><path d="M1320 740 C1340 740 1320 740 1340 740" style="fill:transparent;stroke:black" /><rect x="1406" y="720" width="137" height="40" style="fill:green;stroke:black;stroke-width:1" /><text x="1416" y="730" font-size="8" style="fill:white">Autor:                                                                                                                                                             
                            </text><rect x="1560" y="720" width="200" height="40" style="fill:white;stroke:black;stroke-width:1" /><text x="1570" y="730" font-size="10" style="fill:blue">xsl:value-of</text><path d="M1540 740 C1560 740 1540 740 1560 740" style="fill:transparent;stroke:black" /><text x="1570" y="740" font-size="8" style="fill:black">select: @nombre</text><rect x="1340" y="820" width="200" height="40" style="fill:white;stroke:black;stroke-width:1" /><text x="1350" y="830" font-size="10" style="fill:blue">p</text><path d="M1320 740 C1340 740 1320 840 1340 840" style="fill:transparent;stroke:black" /><rect x="1406" y="820" width="137" height="40" style="fill:green;stroke:black;stroke-width:1" /><text x="1416" y="830" font-size="8" style="fill:white">Email:                                                                                                                                                             
                            </text><rect x="1560" y="820" width="200" height="40" style="fill:white;stroke:black;stroke-width:1" /><text x="1570" y="830" font-size="10" style="fill:blue">xsl:value-of</text><path d="M1540 840 C1560 840 1540 840 1560 840" style="fill:transparent;stroke:black" /><text x="1570" y="840" font-size="8" style="fill:black">select: @email</text><rect x="1120" y="970" width="200" height="40" style="fill:white;stroke:black;stroke-width:1" /><text x="1130" y="980" font-size="10" style="fill:blue">h3</text><path d="M1100 290 C1120 290 1100 990 1120 990" style="fill:transparent;stroke:black" /><rect x="1186" y="970" width="137" height="40" style="fill:green;stroke:black;stroke-width:1" /><text x="1196" y="980" font-size="8" style="fill:white">Resumen</text><rect x="1120" y="1020" width="200" height="40" style="fill:white;stroke:black;stroke-width:1" /><text x="1130" y="1030" font-size="10" style="fill:blue">p</text><path d="M1100 290 C1120 290 1100 1040 1120 1040" style="fill:transparent;stroke:black" /><rect x="1340" y="1020" width="200" height="40" style="fill:white;stroke:black;stroke-width:1" /><text x="1350" y="1030" font-size="10" style="fill:blue">xsl:value-of</text><path d="M1320 1040 C1340 1040 1320 1040 1340 1040" style="fill:transparent;stroke:black" /><text x="1350" y="1040" font-size="8" style="fill:black">select: abstract</text><rect x="1120" y="1120" width="200" height="40" style="fill:white;stroke:black;stroke-width:1" /><text x="1130" y="1130" font-size="10" style="fill:blue">h3</text><path d="M1100 290 C1120 290 1100 1140 1120 1140" style="fill:transparent;stroke:black" /><rect x="1186" y="1120" width="137" height="40" style="fill:green;stroke:black;stroke-width:1" /><text x="1196" y="1130" font-size="8" style="fill:white">Palabras Clave</text><rect x="1120" y="1170" width="200" height="40" style="fill:white;stroke:black;stroke-width:1" /><text x="1130" y="1180" font-size="10" style="fill:blue">p</text><path d="M1100 290 C1120 290 1100 1190 1120 1190" style="fill:transparent;stroke:black" /><rect x="1340" y="1170" width="200" height="40" style="fill:white;stroke:black;stroke-width:1" /><text x="1350" y="1180" font-size="10" style="fill:blue">xsl:for-each</text><path d="M1320 1190 C1340 1190 1320 1190 1340 1190" style="fill:transparent;stroke:black" /><text x="1350" y="1190" font-size="8" style="fill:black">select: keywordset/*</text><rect x="1560" y="1170" width="200" height="40" style="fill:white;stroke:black;stroke-width:1" /><text x="1570" y="1180" font-size="10" style="fill:blue">xsl:value-of</text><path d="M1540 1190 C1560 1190 1540 1190 1560 1190" style="fill:transparent;stroke:black" /><text x="1570" y="1190" font-size="8" style="fill:black">select: .</text><rect x="1406" y="1220" width="137" height="40" style="fill:green;stroke:black;stroke-width:1" /><text x="1416" y="1230" font-size="8" style="fill:white">,
                                                                                                                                                        
                        </text><rect x="1120" y="1320" width="200" height="40" style="fill:white;stroke:black;stroke-width:1" /><text x="1130" y="1330" font-size="10" style="fill:blue">h3</text><path d="M1100 290 C1120 290 1100 1340 1120 1340" style="fill:transparent;stroke:black" /><rect x="1186" y="1320" width="137" height="40" style="fill:green;stroke:black;stroke-width:1" /><text x="1196" y="1330" font-size="8" style="fill:white">Revista</text><rect x="1120" y="1370" width="200" height="40" style="fill:white;stroke:black;stroke-width:1" /><text x="1130" y="1380" font-size="10" style="fill:blue">p</text><path d="M1100 290 C1120 290 1100 1390 1120 1390" style="fill:transparent;stroke:black" /><rect x="1186" y="1370" width="137" height="40" style="fill:green;stroke:black;stroke-width:1" /><text x="1196" y="1380" font-size="8" style="fill:white">Nombre:                                                                                                                                     
                        </text><rect x="1340" y="1370" width="200" height="40" style="fill:white;stroke:black;stroke-width:1" /><text x="1350" y="1380" font-size="10" style="fill:blue">xsl:value-of</text><path d="M1320 1390 C1340 1390 1320 1390 1340 1390" style="fill:transparent;stroke:black" /><text x="1350" y="1390" font-size="8" style="fill:black">select: magazine/@nombre</text><rect x="1120" y="1470" width="200" height="40" style="fill:white;stroke:black;stroke-width:1" /><text x="1130" y="1480" font-size="10" style="fill:blue">p</text><path d="M1100 290 C1120 290 1100 1490 1120 1490" style="fill:transparent;stroke:black" /><rect x="1186" y="1470" width="137" height="40" style="fill:green;stroke:black;stroke-width:1" /><text x="1196" y="1480" font-size="8" style="fill:white">Volumen:                                                                                                                                     
                        </text><rect x="1340" y="1470" width="200" height="40" style="fill:white;stroke:black;stroke-width:1" /><text x="1350" y="1480" font-size="10" style="fill:blue">xsl:value-of</text><path d="M1320 1490 C1340 1490 1320 1490 1340 1490" style="fill:transparent;stroke:black" /><text x="1350" y="1490" font-size="8" style="fill:black">select: magazine/@volumenum</text></svg>