<?xml version="1.0" encoding="utf-8"?><svg width="auto" height="1770" style="overflow:visible " version="1.1" xmlns="http://www.w3.org/2000/svg"><rect x="20" y="20" width="200" height="40" style="fill:white;stroke:black;stroke-width:1" /><text x="30" y="30" font-size="10" style="fill:blue">xsl:stylesheet</text><text x="30" y="40" font-size="8" style="fill:black">version: 1.0</text><text x="30" y="50" font-size="8" style="fill:black">xmlns:xsl: http://www.w3.org/1999/XSL/Transform</text><rect x="240" y="20" width="200" height="40" style="fill:white;stroke:black;stroke-width:1" /><text x="250" y="30" font-size="10" style="fill:blue">xsl:output</text><path d="M220 40 C240 40 220 40 240 40" style="fill:transparent;stroke:black" /><text x="250" y="40" font-size="8" style="fill:black">method: html</text><rect x="240" y="70" width="200" height="40" style="fill:white;stroke:black;stroke-width:1" /><text x="250" y="80" font-size="10" style="fill:blue">xsl:template</text><path d="M220 40 C240 40 220 90 240 90" style="fill:transparent;stroke:black" /><text x="250" y="90" font-size="8" style="fill:black">match: /</text><rect x="460" y="70" width="200" height="40" style="fill:white;stroke:black;stroke-width:1" /><text x="470" y="80" font-size="10" style="fill:blue">html</text><path d="M440 90 C460 90 440 90 460 90" style="fill:transparent;stroke:black" /><rect x="680" y="70" width="200" height="40" style="fill:white;stroke:black;stroke-width:1" /><text x="690" y="80" font-size="10" style="fill:blue">head</text><path d="M660 90 C680 90 660 90 680 90" style="fill:transparent;stroke:black" /><rect x="900" y="70" width="200" height="40" style="fill:white;stroke:black;stroke-width:1" /><text x="910" y="80" font-size="10" style="fill:blue">title</text><path d="M880 90 C900 90 880 90 900 90" style="fill:transparent;stroke:black" /><rect x="966" y="70" width="137" height="40" style="fill:green;stroke:black;stroke-width:1" /><text x="976" y="80" font-size="8" style="fill:white">Articulos de mi practica de laboratorio</text><rect x="680" y="170" width="200" height="40" style="fill:white;stroke:black;stroke-width:1" /><text x="690" y="180" font-size="10" style="fill:blue">body</text><path d="M660 90 C680 90 660 190 680 190" style="fill:transparent;stroke:black" /><rect x="900" y="170" width="200" height="40" style="fill:white;stroke:black;stroke-width:1" /><text x="910" y="180" font-size="10" style="fill:blue">h1</text><path d="M880 190 C900 190 880 190 900 190" style="fill:transparent;stroke:black" /><rect x="966" y="170" width="137" height="40" style="fill:green;stroke:black;stroke-width:1" /><text x="976" y="180" font-size="8" style="fill:white">Seleccion de Articulos</text><rect x="900" y="220" width="200" height="40" style="fill:white;stroke:black;stroke-width:1" /><text x="910" y="230" font-size="10" style="fill:blue">xsl:for-each</text><path d="M880 190 C900 190 880 240 900 240" style="fill:transparent;stroke:black" /><text x="910" y="240" font-size="8" style="fill:black">select: articles/article</text><rect x="1120" y="220" width="200" height="40" style="fill:white;stroke:black;stroke-width:1" /><text x="1130" y="230" font-size="10" style="fill:blue">h2</text><path d="M1100 240 C1120 240 1100 240 1120 240" style="fill:transparent;stroke:black" /><rect x="1340" y="220" width="200" height="40" style="fill:white;stroke:black;stroke-width:1" /><text x="1350" y="230" font-size="10" style="fill:blue">xsl:value-of</text><path d="M1320 240 C1340 240 1320 240 1340 240" style="fill:transparent;stroke:black" /><text x="1350" y="240" font-size="8" style="fill:black">select: @titulo</text><rect x="1120" y="320" width="200" height="40" style="fill:white;stroke:black;stroke-width:1" /><text x="1130" y="330" font-size="10" style="fill:blue">p</text><path d="M1100 240 C1120 240 1100 340 1120 340" style="fill:transparent;stroke:black" /><rect x="1186" y="320" width="137" height="40" style="fill:green;stroke:black;stroke-width:1" /><text x="1196" y="330" font-size="8" style="fill:white">Página inicio:
                                                                                                                                                            
                        </text><rect x="1340" y="320" width="200" height="40" style="fill:white;stroke:black;stroke-width:1" /><text x="1350" y="330" font-size="10" style="fill:blue">xsl:value-of</text><path d="M1320 340 C1340 340 1320 340 1340 340" style="fill:transparent;stroke:black" /><text x="1350" y="340" font-size="8" style="fill:black">select: @pagina_inicio</text><rect x="1120" y="420" width="200" height="40" style="fill:white;stroke:black;stroke-width:1" /><text x="1130" y="430" font-size="10" style="fill:blue">p</text><path d="M1100 240 C1120 240 1100 440 1120 440" style="fill:transparent;stroke:black" /><rect x="1186" y="420" width="137" height="40" style="fill:green;stroke:black;stroke-width:1" /><text x="1196" y="430" font-size="8" style="fill:white">Página final:
                                                                                                                                                            
                        </text><rect x="1340" y="420" width="200" height="40" style="fill:white;stroke:black;stroke-width:1" /><text x="1350" y="430" font-size="10" style="fill:blue">xsl:value-of</text><path d="M1320 440 C1340 440 1320 440 1340 440" style="fill:transparent;stroke:black" /><text x="1350" y="440" font-size="8" style="fill:black">select: @pagina_final</text><rect x="1120" y="520" width="200" height="40" style="fill:white;stroke:black;stroke-width:1" /><text x="1130" y="530" font-size="10" style="fill:blue">p</text><path d="M1100 240 C1120 240 1100 540 1120 540" style="fill:transparent;stroke:black" /><rect x="1186" y="520" width="137" height="40" style="fill:green;stroke:black;stroke-width:1" /><text x="1196" y="530" font-size="8" style="fill:white">Año:                                                                                                                                                         
                        </text><rect x="1340" y="520" width="200" height="40" style="fill:white;stroke:black;stroke-width:1" /><text x="1350" y="530" font-size="10" style="fill:blue">xsl:value-of</text><path d="M1320 540 C1340 540 1320 540 1340 540" style="fill:transparent;stroke:black" /><text x="1350" y="540" font-size="8" style="fill:black">select: @año</text><rect x="1120" y="620" width="200" height="40" style="fill:white;stroke:black;stroke-width:1" /><text x="1130" y="630" font-size="10" style="fill:blue">h3</text><path d="M1100 240 C1120 240 1100 640 1120 640" style="fill:transparent;stroke:black" /><rect x="1186" y="620" width="137" height="40" style="fill:green;stroke:black;stroke-width:1" /><text x="1196" y="630" font-size="8" style="fill:white">Autores</text><rect x="1120" y="670" width="200" height="40" style="fill:white;stroke:black;stroke-width:1" /><text x="1130" y="680" font-size="10" style="fill:blue">xsl:for-each</text><path d="M1100 240 C1120 240 1100 690 1120 690" style="fill:transparent;stroke:black" /><text x="1130" y="690" font-size="8" style="fill:black">select: authors/*</text><rect x="1340" y="670" width="200" height="40" style="fill:white;stroke:black;stroke-width:1" /><text x="1350" y="680" font-size="10" style="fill:blue">p</text><path d="M1320 690 C1340 690 1320 690 1340 690" style="fill:transparent;stroke:black" /><rect x="1406" y="670" width="137" height="40" style="fill:green;stroke:black;stroke-width:1" /><text x="1416" y="680" font-size="8" style="fill:white">Autor:                                                                                                                                                             
                            </text><rect x="1560" y="670" width="200" height="40" style="fill:white;stroke:black;stroke-width:1" /><text x="1570" y="680" font-size="10" style="fill:blue">xsl:value-of</text><path d="M1540 690 C1560 690 1540 690 1560 690" style="fill:transparent;stroke:black" /><text x="1570" y="690" font-size="8" style="fill:black">select: @nombre</text><rect x="1340" y="770" width="200" height="40" style="fill:white;stroke:black;stroke-width:1" /><text x="1350" y="780" font-size="10" style="fill:blue">p</text><path d="M1320 690 C1340 690 1320 790 1340 790" style="fill:transparent;stroke:black" /><rect x="1406" y="770" width="137" height="40" style="fill:green;stroke:black;stroke-width:1" /><text x="1416" y="780" font-size="8" style="fill:white">Email:                                                                                                                                                             
                            </text><rect x="1560" y="770" width="200" height="40" style="fill:white;stroke:black;stroke-width:1" /><text x="1570" y="780" font-size="10" style="fill:blue">xsl:value-of</text><path d="M1540 790 C1560 790 1540 790 1560 790" style="fill:transparent;stroke:black" /><text x="1570" y="790" font-size="8" style="fill:black">select: @email</text><rect x="1120" y="920" width="200" height="40" style="fill:white;stroke:black;stroke-width:1" /><text x="1130" y="930" font-size="10" style="fill:blue">h3</text><path d="M1100 240 C1120 240 1100 940 1120 940" style="fill:transparent;stroke:black" /><rect x="1186" y="920" width="137" height="40" style="fill:green;stroke:black;stroke-width:1" /><text x="1196" y="930" font-size="8" style="fill:white">Resumen</text><rect x="1120" y="970" width="200" height="40" style="fill:white;stroke:black;stroke-width:1" /><text x="1130" y="980" font-size="10" style="fill:blue">p</text><path d="M1100 240 C1120 240 1100 990 1120 990" style="fill:transparent;stroke:black" /><rect x="1340" y="970" width="200" height="40" style="fill:white;stroke:black;stroke-width:1" /><text x="1350" y="980" font-size="10" style="fill:blue">xsl:value-of</text><path d="M1320 990 C1340 990 1320 990 1340 990" style="fill:transparent;stroke:black" /><text x="1350" y="990" font-size="8" style="fill:black">select: abstract</text><rect x="1120" y="1070" width="200" height="40" style="fill:white;stroke:black;stroke-width:1" /><text x="1130" y="1080" font-size="10" style="fill:blue">h3</text><path d="M1100 240 C1120 240 1100 1090 1120 1090" style="fill:transparent;stroke:black" /><rect x="1186" y="1070" width="137" height="40" style="fill:green;stroke:black;stroke-width:1" /><text x="1196" y="1080" font-size="8" style="fill:white">Palabras Clave</text><rect x="1120" y="1120" width="200" height="40" style="fill:white;stroke:black;stroke-width:1" /><text x="1130" y="1130" font-size="10" style="fill:blue">p</text><path d="M1100 240 C1120 240 1100 1140 1120 1140" style="fill:transparent;stroke:black" /><rect x="1340" y="1120" width="200" height="40" style="fill:white;stroke:black;stroke-width:1" /><text x="1350" y="1130" font-size="10" style="fill:blue">xsl:for-each</text><path d="M1320 1140 C1340 1140 1320 1140 1340 1140" style="fill:transparent;stroke:black" /><text x="1350" y="1140" font-size="8" style="fill:black">select: keywordset/*</text><rect x="1560" y="1120" width="200" height="40" style="fill:white;stroke:black;stroke-width:1" /><text x="1570" y="1130" font-size="10" style="fill:blue">xsl:value-of</text><path d="M1540 1140 C1560 1140 1540 1140 1560 1140" style="fill:transparent;stroke:black" /><text x="1570" y="1140" font-size="8" style="fill:black">select: .</text><rect x="1406" y="1170" width="137" height="40" style="fill:green;stroke:black;stroke-width:1" /><text x="1416" y="1180" font-size="8" style="fill:white">,
                                                                                                                                                        
                        </text><rect x="1120" y="1270" width="200" height="40" style="fill:white;stroke:black;stroke-width:1" /><text x="1130" y="1280" font-size="10" style="fill:blue">h3</text><path d="M1100 240 C1120 240 1100 1290 1120 1290" style="fill:transparent;stroke:black" /><rect x="1186" y="1270" width="137" height="40" style="fill:green;stroke:black;stroke-width:1" /><text x="1196" y="1280" font-size="8" style="fill:white">Revista</text><rect x="1120" y="1320" width="200" height="40" style="fill:white;stroke:black;stroke-width:1" /><text x="1130" y="1330" font-size="10" style="fill:blue">p</text><path d="M1100 240 C1120 240 1100 1340 1120 1340" style="fill:transparent;stroke:black" /><rect x="1186" y="1320" width="137" height="40" style="fill:green;stroke:black;stroke-width:1" /><text x="1196" y="1330" font-size="8" style="fill:white">Nombre:                                                                                                                                     
                        </text><rect x="1340" y="1320" width="200" height="40" style="fill:white;stroke:black;stroke-width:1" /><text x="1350" y="1330" font-size="10" style="fill:blue">xsl:value-of</text><path d="M1320 1340 C1340 1340 1320 1340 1340 1340" style="fill:transparent;stroke:black" /><text x="1350" y="1340" font-size="8" style="fill:black">select: magazine/@nombre</text><rect x="1120" y="1420" width="200" height="40" style="fill:white;stroke:black;stroke-width:1" /><text x="1130" y="1430" font-size="10" style="fill:blue">p</text><path d="M1100 240 C1120 240 1100 1440 1120 1440" style="fill:transparent;stroke:black" /><rect x="1186" y="1420" width="137" height="40" style="fill:green;stroke:black;stroke-width:1" /><text x="1196" y="1430" font-size="8" style="fill:white">Volumen:                                                                                                                                     
                        </text><rect x="1340" y="1420" width="200" height="40" style="fill:white;stroke:black;stroke-width:1" /><text x="1350" y="1430" font-size="10" style="fill:blue">xsl:value-of</text><path d="M1320 1440 C1340 1440 1320 1440 1340 1440" style="fill:transparent;stroke:black" /><text x="1350" y="1440" font-size="8" style="fill:black">select: magazine/@volumenum</text></svg>